<?xml version="1.0" encoding="UTF-8" standalone="no"?>
<!-- Generator: Adobe Illustrator 19.2.0, SVG Export Plug-In . SVG Version: 6.00 Build 0)  -->

<svg
   version="1.1"
   id="Layer_1"
   x="0px"
   y="0px"
   viewBox="0 0 1039.8 1039.8"
   xml:space="preserve"
   sodipodi:docname="DigiByte Symbol.svg"
   width="1039.8"
   height="1039.8"
   inkscape:version="1.3.2 (091e20e, 2023-11-25)"
   xmlns:inkscape="http://www.inkscape.org/namespaces/inkscape"
   xmlns:sodipodi="http://sodipodi.sourceforge.net/DTD/sodipodi-0.dtd"
   xmlns="http://www.w3.org/2000/svg"
   xmlns:svg="http://www.w3.org/2000/svg"><defs
   id="defs2">
	
	
</defs><sodipodi:namedview
   id="namedview2"
   pagecolor="#ffffff"
   bordercolor="#000000"
   borderopacity="0.25"
   inkscape:showpageshadow="2"
   inkscape:pageopacity="0.0"
   inkscape:pagecheckerboard="0"
   inkscape:deskcolor="#d1d1d1"
   inkscape:zoom="0.16241359"
   inkscape:cx="554.14082"
   inkscape:cy="141.61377"
   inkscape:window-width="3370"
   inkscape:window-height="1376"
   inkscape:window-x="70"
   inkscape:window-y="27"
   inkscape:window-maximized="1"
   inkscape:current-layer="Layer_1" />
<style
   type="text/css"
   id="style1">
	.st0{fill:#0066CC;}
	.st1{fill:#002352;}
	.st2{fill:#FFFFFF;}
</style>
<path
   id="path1"
   class="st0"
   d="M 519.90039 0 C 232.70068 0 -7.5791149e-14 232.80068 0 519.90039 C 0 807.0001 232.80068 1039.8008 519.90039 1039.8008 C 807.0001 1039.8008 1039.8008 807.0001 1039.8008 519.90039 C 1039.8008 232.80068 807.1001 -7.5791149e-14 519.90039 0 z M 519.90039 97.5 A 422.39999 422.39999 0 0 1 942.30078 519.90039 A 422.39999 422.39999 0 0 1 519.90039 942.30078 A 422.39999 422.39999 0 0 1 97.5 519.90039 A 422.39999 422.39999 0 0 1 519.90039 97.5 z " />
<path
   class="st2"
   d="m 649.8,307.9 15,-39.1 c 1.5,-4 -1.4,-8.2 -5.6,-8.2 h -55.7 l -17.6,45.8 h -24.7 l 14.4,-37.6 c 1.5,-4 -1.4,-8.2 -5.6,-8.2 h -55.7 l -17.6,45.8 H 322.5 c -7.9,0 -15.3,4.3 -19.2,11.2 l -43.4,76.6 h 60.7 264.8 c 10.8,0 21.5,2 31.5,6.1 19.2,7.9 41.9,25.8 36.2,66.1 -9.5,67.5 -78.3,187.1 -227.6,189 l 77.2,-201 c 3.2,-8.3 -2.9,-17.1 -11.8,-17.1 H 387.4 l -125,307.2 c 0,0 25.2,3.1 64.7,3.1 l -12.4,32.3 h 56.9 c 4.5,0 8.6,-2.8 10.3,-7 l 10.7,-27.8 c 8.4,-0.7 16.9,-1.6 25.7,-2.6 l -14.4,37.4 h 56.9 c 4.5,0 8.6,-2.8 10.3,-7 l 16.2,-42.3 C 580.8,709.3 681.3,662.9 741,565 861.5,367.6 736.3,316.6 649.8,307.9 Z"
   id="path2"
   style="fill:#0066cc;fill-opacity:1" />
</svg>
